<svg width="90" height="123" viewBox="0 0 90 123" fill="none" xmlns="http://www.w3.org/2000/svg">
<g clip-path="url(#clip0_13_2)">
<path fill-rule="evenodd" clip-rule="evenodd" d="M10.37 84.59C4.17 79.12 0.46 71.46 0 60.91H89.19C88.86 70.85 86.25 78.14 81.01 82.36C75.76 86.59 66.99 87.03 60.13 90.17C58.64 90.85 57.26 91.69 56.01 92.73C48.43 99.03 50.63 108.23 57.62 114.04V122.88H10.6V106.97H2.71V94.84H10.37V84.59V84.59ZM0.03 54.56V0C6.76 0 13.5 0 20.23 0L27.18 54.56H0.03ZM31.38 48.73H89.09V54.56H31.38V48.73Z" fill="#F69333"/>
<path fill-rule="evenodd" clip-rule="evenodd" d="M37.1842 64.6947C38.5866 63.9665 40.0638 63.4967 41.6196 63.3071C43.9582 63.0222 45.9567 63.5094 47.6144 64.7584L61.9416 75.7221L60.7268 77.2051L66.1692 81.4053L73.6349 72.3593L68.1955 68.1929L66.8157 69.8244L52.5676 58.92C50.6075 57.4299 48.6079 56.8146 46.5662 57.0633C43.1348 57.4814 40.0128 60.0212 37.1842 64.6947ZM16.8762 107.71L25.2182 114.099C36.0355 100.445 45.794 88.0528 56.6037 74.3922L50.0154 69.3458C38.6367 82.5707 28.2805 94.5051 16.8762 107.71Z" fill="white"/>
</g>
<defs>
<clipPath id="clip0_13_2">
<rect width="89.19" height="122.88" fill="white"/>
</clipPath>
</defs>
</svg>
